<svg xmlns="http://www.w3.org/2000/svg" viewBox="0 0 401.92334 90.74854"><path d="M127.0083,57.98975h10.63135v2.26757a6.864,6.864,0,0,1,4.98828-2.51953q3.90455,0,6.55029,4.21973a19.76575,19.76575,0,0,1,2.645,10.66943q0,7.00343-2.834,11.42481-2.83447,4.42089-7.16748,4.42138a8.01854,8.01854,0,0,1-4.18213-1.28515v9.54834H127.0083ZM137.63965,71.2915v5.4668a3.01626,3.01626,0,0,0,1.78857.73047,1.76642,1.76642,0,0,0,1.5874-1.02,5.71349,5.71349,0,0,0,.57959-2.80908,5.59266,5.59266,0,0,0-.57959-2.68311,1.64287,1.64287,0,0,0-2.83447-.44092A2.51615,2.51615,0,0,0,137.63965,71.2915Z" transform="translate(-0.68994 -6.48779)" style="fill:#fff;stroke:#fff;stroke-miterlimit:10"/><path d="M176.437,75.07031H165.604a7.11336,7.11336,0,0,0,1.92725,3.64063,4.409,4.409,0,0,0,3.11133,1.29736A6.71606,6.71606,0,0,0,176.437,76.708v5.31543q-3.65332,6.65112-10.07715,6.65136a10.14614,10.14614,0,0,1-8.6665-4.42138q-3.2-4.42164-3.19922-12.08008A19.84221,19.84221,0,0,1,156.08105,64.25a11.95177,11.95177,0,0,1,4.00586-5.34082,9.55961,9.55961,0,0,1,5.51709-1.6499,8.06109,8.06109,0,0,1,3.75342.96972,10.97777,10.97777,0,0,1,3.439,2.92237,14.25938,14.25938,0,0,1,2.45654,4.84961,23.043,23.043,0,0,1,1.02,4.73632Q176.41137,72.57642,176.437,75.07031Zm-11.46289-5.31543H169.937a7.98186,7.98186,0,0,0-.78076-3.51465q-.70605-1.29711-1.71338-1.29736a2.04515,2.04515,0,0,0-1.76318,1.25977,6.54512,6.54512,0,0,0-.70557,3.22461Z" transform="translate(-0.68994 -6.48779)" style="fill:#fff;stroke:#fff;stroke-miterlimit:10"/><path d="M199.186,73.30713l8.11181,14.96435H195.105l-2.94775-5.99609-2.82178,5.99609H177.97363l8.11231-15.418-8.11231-14.86377h12.24366l2.82177,5.81933,2.79639-5.81933h11.4624Z" transform="translate(-0.68994 -6.48779)" style="fill:#fff;stroke:#fff;stroke-miterlimit:10"/><path d="M249.14355,88.27148H227.40234V49.82715h11.56348V78.62256h10.17773Z" transform="translate(-0.68994 -6.48779)" style="fill:#fff;stroke:#fff;stroke-miterlimit:10"/><path d="M272.67383,75.07031h-10.833a7.1165,7.1165,0,0,0,1.92676,3.64063,4.4123,4.4123,0,0,0,3.11133,1.29736,6.71685,6.71685,0,0,0,5.79492-3.30029v5.31543q-3.65333,6.65112-10.07715,6.65136a10.14472,10.14472,0,0,1-8.666-4.42138Q250.73,79.83178,250.731,72.17334a19.83412,19.83412,0,0,1,1.5874-7.92334,11.95047,11.95047,0,0,1,4.00488-5.34082,9.56223,9.56223,0,0,1,5.51758-1.6499,8.06449,8.06449,0,0,1,3.75391.96972,10.98709,10.98709,0,0,1,3.43847,2.92237,14.24113,14.24113,0,0,1,2.45606,4.84961,23.04935,23.04935,0,0,1,1.02051,4.73632Q272.64746,72.57642,272.67383,75.07031Zm-11.46289-5.31543h4.96289a7.97472,7.97472,0,0,0-.78125-3.51465,2.02338,2.02338,0,0,0-1.71289-1.29736,2.04689,2.04689,0,0,0-1.76367,1.25977,6.55606,6.55606,0,0,0-.70508,3.22461Z" transform="translate(-0.68994 -6.48779)" style="fill:#fff;stroke:#fff;stroke-miterlimit:10"/><path d="M288.92285,57.98975h9.79981V79.50439a50.82665,50.82665,0,0,1-.45313,8.08692,14.04146,14.04146,0,0,1-1.76367,4.72363,8.5696,8.5696,0,0,1-3.43848,3.313,12.2332,12.2332,0,0,1-5.63086,1.1084,17.60433,17.60433,0,0,1-11.99121-4.38379v-13.73q3.87891,5.417,8.41407,5.4165a4.4867,4.4867,0,0,0,3.2373-.98242,4.36053,4.36053,0,0,0,.99512-3.19971V79.353a6.34342,6.34342,0,0,1-4.53516,1.63769,6.925,6.925,0,0,1-5.90723-3.187,14.29891,14.29891,0,0,1-2.25488-8.42676,17.57943,17.57943,0,0,1,.81836-5.4165,9.279,9.279,0,0,1,2.19238-3.87988,6.38041,6.38041,0,0,1,3.2627-1.71289A44.67022,44.67022,0,0,1,288.92285,57.98975Zm-.83105,15.06543v-6.5503h-.20118q-3.50244,0-3.502,3.8042a4.38822,4.38822,0,0,0,.61719,2.48145,1.89719,1.89719,0,0,0,1.64941.91943A1.70384,1.70384,0,0,0,288.0918,73.05518Z" transform="translate(-0.68994 -6.48779)" style="fill:#fff;stroke:#fff;stroke-miterlimit:10"/><path d="M323.86523,75.07031h-10.833a7.11656,7.11656,0,0,0,1.92675,3.64063,4.41233,4.41233,0,0,0,3.11133,1.29736,6.71682,6.71682,0,0,0,5.79492-3.30029v5.31543q-3.65331,6.65112-10.07714,6.65136a10.1447,10.1447,0,0,1-8.666-4.42138q-3.20069-4.42164-3.20019-12.08008A19.85046,19.85046,0,0,1,303.50879,64.25a11.95864,11.95864,0,0,1,4.00586-5.34082,9.56221,9.56221,0,0,1,5.51758-1.6499,8.06445,8.06445,0,0,1,3.7539.96972,10.98712,10.98712,0,0,1,3.43848,2.92237,14.2413,14.2413,0,0,1,2.45605,4.84961,23.04868,23.04868,0,0,1,1.02051,4.73632Q323.83887,72.57642,323.86523,75.07031Zm-11.46289-5.31543h4.96289a7.97458,7.97458,0,0,0-.78125-3.51465,2.02336,2.02336,0,0,0-1.71289-1.29736,2.0469,2.0469,0,0,0-1.76367,1.25977,6.55617,6.55617,0,0,0-.70508,3.22461Z" transform="translate(-0.68994 -6.48779)" style="fill:#fff;stroke:#fff;stroke-miterlimit:10"/><path d="M327.01465,57.98975h10.63086v3.7539q2.59423-4.00562,6.34863-4.00586A6.65622,6.65622,0,0,1,347.71,58.7959a6.58593,6.58593,0,0,1,2.45606,2.94775A14.32731,14.32731,0,0,1,351.2627,65.812a70.61845,70.61845,0,0,1,.26367,7.394V88.27148H341.5V74.23926a33.63994,33.63994,0,0,0-.32715-6.19776,1.56224,1.56224,0,0,0-1.68847-1.23437,2.70525,2.70525,0,0,0-1.83887,1.0332V88.27148H327.01465Z" transform="translate(-0.68994 -6.48779)" style="fill:#fff;stroke:#fff;stroke-miterlimit:10"/><path d="M368.7832,49.82715H379.415V88.27148h-8.23828a61.0379,61.0379,0,0,1-6.5752-.22656,9.95885,9.95885,0,0,1-3.376-1.10888,10.52908,10.52908,0,0,1-3.2627-2.94727,14.955,14.955,0,0,1-2.45605-4.92529,21.54309,21.54309,0,0,1-.85645-6.21q0-6.72657,2.97266-10.9209a8.98245,8.98245,0,0,1,7.6084-4.19483,6.235,6.235,0,0,1,3.55175,1.0835Zm0,27.40967V70.40967a2.22879,2.22879,0,0,0-1.6875-.75586,1.89654,1.89654,0,0,0-1.6123,1.02051,4.68876,4.68876,0,0,0-.65528,2.58252,4.7499,4.7499,0,0,0,.76856,3.13623,3.83829,3.83829,0,0,0,2.88477.84375Z" transform="translate(-0.68994 -6.48779)" style="fill:#fff;stroke:#fff;stroke-miterlimit:10"/><path d="M383.89844,76.80859a9.77992,9.77992,0,0,0,2.63281,3.36329A4.929,4.929,0,0,0,389.542,81.419q2.06544,0,2.06543-2.2168a2.68793,2.68793,0,0,0-.45312-1.54932,2.96848,2.96848,0,0,0-1.36035-1.04541l-2.36817-1.08349a8.0573,8.0573,0,0,1-3.8291-3.45118,11.16394,11.16394,0,0,1-1.335-5.61816,8.47941,8.47941,0,0,1,2.74512-6.75147q2.74658-2.39355,7.73437-2.39355a15.73166,15.73166,0,0,1,8.81738,2.59473l-2.54394,7.73437q-2.49464-3.30029-4.78711-3.30029a1.79606,1.79606,0,0,0-1.30957.49121,1.73046,1.73046,0,0,0-.50391,1.29736,2.43417,2.43417,0,0,0,.70508,1.83936,7.631,7.631,0,0,0,2.59473,1.36035q4.05615,1.43555,5.22754,3.98047a12.79239,12.79239,0,0,1,1.17187,5.4165A10.07933,10.07933,0,0,1,399.544,85.979a9.08965,9.08965,0,0,1-6.90333,2.6958,19.47117,19.47117,0,0,1-5.42871-.89453,25.00748,25.00748,0,0,1-5.68164-2.45654Z" transform="translate(-0.68994 -6.48779)" style="fill:#fff;stroke:#fff;stroke-miterlimit:10"/><path d="M20.23926,49.834H7.56738V24.73926H1.18994V7.70557H26.61621V24.73926H20.23926Z" transform="translate(-0.68994 -6.48779)" style="fill:#fff;stroke:#fff;stroke-miterlimit:10"/><path d="M29.46,7.70557H41.11035V20.9292q2.6499-4.55493,7.17774-4.55518a6.70488,6.70488,0,0,1,3.78222,1.27,8.12588,8.12588,0,0,1,2.89844,3.68555,14.7986,14.7986,0,0,1,1.187,4.67969q.16626,2.26391.166,7.70215V49.834H45.334V34.07031a29.35418,29.35418,0,0,0-.40039-6.25293,1.73109,1.73109,0,0,0-1.8081-1.394,2.63129,2.63129,0,0,0-2.01514,1.29736V49.834H29.46Z" transform="translate(-0.68994 -6.48779)" style="fill:#fff;stroke:#fff;stroke-miterlimit:10"/><path d="M83.73535,35.36768H71.86426a7.795,7.795,0,0,0,2.1123,3.98925,4.83131,4.83131,0,0,0,3.40918,1.42188,7.35772,7.35772,0,0,0,6.34961-3.6167V42.9873q-4.00269,7.28834-11.04248,7.28858a11.11786,11.11786,0,0,1-9.49707-4.84522q-3.5061-4.845-3.50586-13.23779a21.73817,21.73817,0,0,1,1.73926-8.68213,13.09733,13.09733,0,0,1,4.38916-5.853,10.47659,10.47659,0,0,1,6.0459-1.8081,8.83786,8.83786,0,0,1,4.11377,1.063,12.0284,12.0284,0,0,1,3.76806,3.20215A15.61524,15.61524,0,0,1,82.438,25.4292a25.25921,25.25921,0,0,1,1.11816,5.19043Q83.70777,32.63526,83.73535,35.36768ZM71.17432,29.543h5.43847a8.74275,8.74275,0,0,0-.856-3.85156,2.21834,2.21834,0,0,0-1.877-1.42139,2.24155,2.24155,0,0,0-1.93261,1.38037,7.17515,7.17515,0,0,0-.773,3.53369Z" transform="translate(-0.68994 -6.48779)" style="fill:#fff;stroke:#fff;stroke-miterlimit:10"/><path d="M106.73242,49.834V7.70557h12.06446a21.7151,21.7151,0,0,1,7.74365,1.07666,13.43982,13.43982,0,0,1,5.14892,3.98925,19.94908,19.94908,0,0,1,3.74073,7.06739,31.2114,31.2114,0,0,1,1.28369,9.23437,28.78066,28.78066,0,0,1-1.11817,8.08887,22.38016,22.38016,0,0,1-3.1333,6.69482,13.02415,13.02415,0,0,1-4.3623,4.11377,13.66136,13.66136,0,0,1-4.40332,1.55957,53.6294,53.6294,0,0,1-6.8877.30371Zm12.94776-26.061h-.27588v9.71777h.331a4.31067,4.31067,0,0,0,3.36817-1.17334,5.52269,5.52269,0,0,0,1.04882-3.74072,5.30568,5.30568,0,0,0-1.04882-3.67187A4.48594,4.48594,0,0,0,119.68018,23.773Z" transform="translate(-0.68994 -6.48779)" style="fill:#fff;stroke:#fff;stroke-miterlimit:10"/><path d="M151.70459,40.66846V49.834H140.0542V16.65039h11.65039V23.6626q2.23608-7.34327,6.43213-7.34375a4.49678,4.49678,0,0,1,3.8789,2.2915,10.80155,10.80155,0,0,1,1.5044,6.01856,9.68557,9.68557,0,0,1-1.5459,5.70068,4.70309,4.70309,0,0,1-4.00293,2.19482q-2.5122,0-4.52734-3.03662a6.68958,6.68958,0,0,0-1.39453,3.03662A56.76244,56.76244,0,0,0,151.70459,40.66846Z" transform="translate(-0.68994 -6.48779)" style="fill:#fff;stroke:#fff;stroke-miterlimit:10"/><path d="M180.71924,16.65039H192.3418V49.834H181.21631V44.00879a14.82819,14.82819,0,0,1-3.5752,4.583,6.83708,6.83708,0,0,1-4.34814,1.46289,6.57818,6.57818,0,0,1-3.86524-1.24219,7.56472,7.56472,0,0,1-2.63623-3.25781,13.90077,13.90077,0,0,1-1.07666-4.26514q-.20727-2.25-.207-8.87549V16.65039h10.96V32.99365a24.69929,24.69929,0,0,0,.30371,4.624,1.71212,1.71212,0,0,0,1.90479,1.42187,1.81714,1.81714,0,0,0,1.43555-.73144,2.20124,2.20124,0,0,0,.60742-1.03516Z" transform="translate(-0.68994 -6.48779)" style="fill:#fff;stroke:#fff;stroke-miterlimit:10"/><path d="M196.53809,16.65039h11.65039v4.11328Q211.031,16.37426,215.145,16.374a7.29612,7.29612,0,0,1,4.07227,1.15967,7.2194,7.2194,0,0,1,2.69189,3.23,15.72362,15.72362,0,0,1,1.20068,4.4585,77.097,77.097,0,0,1,.29,8.103V49.834H212.41211V34.457a36.82921,36.82921,0,0,0-.35889-6.7915,1.71137,1.71137,0,0,0-1.84961-1.35254,2.96361,2.96361,0,0,0-2.01513,1.13183V49.834H196.53809Z" transform="translate(-0.68994 -6.48779)" style="fill:#fff;stroke:#fff;stroke-miterlimit:10"/><path d="M227.40283,7.70557h11.65039V27.61035q4.002-2.34594,4.00293-10.73926v-.2207h11.81592v.27588a21.8731,21.8731,0,0,1-1.44922,8.35107,14.5336,14.5336,0,0,1-3.24414,5.17627,14.86359,14.86359,0,0,1,3.47852,6.543,33.85575,33.85575,0,0,1,1.29785,9.57959q0,.939-.083,3.25781H243.38721v-.63476a41.82827,41.82827,0,0,0-1.02149-10.65674,8.30067,8.30067,0,0,0-3.3125-5.05176V49.834H227.40283Z" transform="translate(-0.68994 -6.48779)" style="fill:#fff;stroke:#fff;stroke-miterlimit:10"/><path d="M268.81348,49.834V47.34912a7.88494,7.88494,0,0,1-2.62305,1.97412,6.80575,6.80575,0,0,1-2.89844.73145,5.234,5.234,0,0,1-4.43066-2.41553,10.56176,10.56176,0,0,1-1.72559-6.28076,10.59539,10.59539,0,0,1,2.167-7.01221,7.21362,7.21362,0,0,1,5.83887-2.59473,10.245,10.245,0,0,1,3.61621.773q-.10986-4.80395-4.334-4.80371a10.62969,10.62969,0,0,0-6.73633,2.59522V20.32227A16.59317,16.59317,0,0,1,268.95117,16.374a12.53832,12.53832,0,0,1,5.78418,1.21485,8.46916,8.46916,0,0,1,3.64356,3.58886,15.29871,15.29871,0,0,1,1.68457,4.84522,51.44143,51.44143,0,0,1,.40039,7.523V49.834Zm0-7.34326V37.85254a3.99931,3.99931,0,0,0-1.84961-.52442,2.20269,2.20269,0,0,0-1.75293.78663,2.96033,2.96033,0,0,0-.67676,2.00146,3.894,3.894,0,0,0,.67676,2.36035,2.0772,2.0772,0,0,0,1.75293.92481A2.1576,2.1576,0,0,0,268.81348,42.49072Z" transform="translate(-0.68994 -6.48779)" style="fill:#fff;stroke:#fff;stroke-miterlimit:10"/><path d="M296.25488,40.66846V49.834H284.60449V16.65039h11.65039V23.6626q2.23681-7.34327,6.43262-7.34375a4.49623,4.49623,0,0,1,3.87891,2.2915,10.80153,10.80153,0,0,1,1.50488,6.01856,9.68911,9.68911,0,0,1-1.5459,5.70068,4.70411,4.70411,0,0,1-4.00391,2.19482q-2.5122,0-4.52734-3.03662a6.68827,6.68827,0,0,0-1.39355,3.03662A56.62872,56.62872,0,0,0,296.25488,40.66846Z" transform="translate(-0.68994 -6.48779)" style="fill:#fff;stroke:#fff;stroke-miterlimit:10"/><path d="M325.13184,7.70557h11.65039V49.834h-9.02735a66.83019,66.83019,0,0,1-7.20605-.24853,10.911,10.911,0,0,1-3.69922-1.21484,11.5468,11.5468,0,0,1-3.5752-3.23,16.38011,16.38011,0,0,1-2.6914-5.397,23.61356,23.61356,0,0,1-.93848-6.80517q0-7.3711,3.25781-11.96778a9.84178,9.84178,0,0,1,8.33692-4.59668,6.83178,6.83178,0,0,1,3.89258,1.1875Zm0,30.03662V30.26074a2.44357,2.44357,0,0,0-1.84961-.82861,2.07934,2.07934,0,0,0-1.76661,1.11816,5.13887,5.13887,0,0,0-.71777,2.83008,5.20839,5.20839,0,0,0,.8418,3.437,4.2087,4.2087,0,0,0,3.16113.92481Z" transform="translate(-0.68994 -6.48779)" style="fill:#fff;stroke:#fff;stroke-miterlimit:10"/><path d="M341.69629,37.273a10.71011,10.71011,0,0,0,2.88476,3.68555,5.40071,5.40071,0,0,0,3.29883,1.36621q2.26318,0,2.26367-2.4292a2.95083,2.95083,0,0,0-.49707-1.69776,3.24949,3.24949,0,0,0-1.49023-1.146l-2.5957-1.187a8.83085,8.83085,0,0,1-4.19629-3.78223,12.23664,12.23664,0,0,1-1.46289-6.15625,9.29208,9.29208,0,0,1,3.00879-7.39893q3.00879-2.62206,8.47558-2.62255a17.24284,17.24284,0,0,1,9.66309,2.84375l-2.78906,8.47509q-2.73341-3.616-5.24512-3.61621a1.9694,1.9694,0,0,0-1.43555.53809,1.89564,1.89564,0,0,0-.55176,1.42187,2.66666,2.66666,0,0,0,.77246,2.01514,8.3519,8.3519,0,0,0,2.84375,1.49072q4.44435,1.574,5.72852,4.36231a14.02861,14.02861,0,0,1,1.2832,5.93554,11.04637,11.04637,0,0,1-2.81543,7.95069,9.95828,9.95828,0,0,1-7.56445,2.9541,21.32082,21.32082,0,0,1-5.94922-.98047,27.4194,27.4194,0,0,1-6.22558-2.69141Z" transform="translate(-0.68994 -6.48779)" style="fill:#fff;stroke:#fff;stroke-miterlimit:10"/><path d="M366.57031,32.8833l-.38672-.35889q2.67774-2.40161,3.00879-7.06738-5.05224-2.20825-5.05176-8.86182A12.01276,12.01276,0,0,1,366.00391,9.79q1.86327-2.80152,4.48632-2.80225a5.10722,5.10722,0,0,1,4.51368,2.82959,14.90682,14.90682,0,0,1,1.69824,7.68848,17.82455,17.82455,0,0,1-2.88574,9.67676A12.18093,12.18093,0,0,1,366.57031,32.8833Z" transform="translate(-0.68994 -6.48779)" style="fill:#fff;stroke:#fff;stroke-miterlimit:10"/><polygon points="103.81 48.216 119.885 75.638 115.157 79.42 106.138 73.275 111.371 73.275 103.81 60.036 96.273 73.275 101.449 73.275 92.463 79.42 87.735 75.638 103.81 48.216" style="fill:#fff;stroke:#fff;stroke-miterlimit:10;stroke-width:5px"/></svg>